<mxfile host="app.diagrams.net" agent="Mozilla/5.0 (Macintosh; Intel Mac OS X 10_15_7) AppleWebKit/537.36 (KHTML, like Gecko) Chrome/133.0.0.0 Safari/537.36" version="26.1.0">
  <diagram id="R2lEEEUBdFMjLlhIrx00" name="Page-1">
    <mxGraphModel dx="2044" dy="1705" grid="1" gridSize="10" guides="1" tooltips="1" connect="1" arrows="1" fold="1" page="1" pageScale="1" pageWidth="850" pageHeight="1100" math="0" shadow="0" extFonts="Permanent Marker^https://fonts.googleapis.com/css?family=Permanent+Marker">
      <root>
        <mxCell id="0" />
        <mxCell id="1" parent="0" />
        <mxCell id="mqM81yEBkV2VAR4ggXiq-1" value="订单条目&lt;div&gt;(类型为台桌的条目)&lt;/div&gt;" style="rounded=1;arcSize=10;whiteSpace=wrap;html=1;align=center;" parent="1" vertex="1">
          <mxGeometry x="260" y="160" width="110" height="40" as="geometry" />
        </mxCell>
        <mxCell id="mqM81yEBkV2VAR4ggXiq-8" value="订单" style="rounded=1;arcSize=10;whiteSpace=wrap;html=1;align=center;" parent="1" vertex="1">
          <mxGeometry x="440" y="160" width="100" height="40" as="geometry" />
        </mxCell>
        <mxCell id="mqM81yEBkV2VAR4ggXiq-9" value="台桌计价器" style="rounded=1;arcSize=10;whiteSpace=wrap;html=1;align=center;" parent="1" vertex="1">
          <mxGeometry x="40" y="160" width="100" height="40" as="geometry" />
        </mxCell>
        <mxCell id="mqM81yEBkV2VAR4ggXiq-17" value="" style="endArrow=none;html=1;rounded=0;" parent="1" source="mqM81yEBkV2VAR4ggXiq-1" target="mqM81yEBkV2VAR4ggXiq-8" edge="1">
          <mxGeometry relative="1" as="geometry">
            <mxPoint x="340" y="220" as="sourcePoint" />
            <mxPoint x="500" y="220" as="targetPoint" />
          </mxGeometry>
        </mxCell>
        <mxCell id="mqM81yEBkV2VAR4ggXiq-18" value="n:1" style="edgeLabel;html=1;align=center;verticalAlign=middle;resizable=0;points=[];" parent="mqM81yEBkV2VAR4ggXiq-17" vertex="1" connectable="0">
          <mxGeometry x="-0.05" y="3" relative="1" as="geometry">
            <mxPoint y="1" as="offset" />
          </mxGeometry>
        </mxCell>
        <mxCell id="mqM81yEBkV2VAR4ggXiq-19" value="台桌活动优惠" style="rounded=1;arcSize=10;whiteSpace=wrap;html=1;align=center;" parent="1" vertex="1">
          <mxGeometry x="-120" y="90" width="100" height="40" as="geometry" />
        </mxCell>
        <mxCell id="mqM81yEBkV2VAR4ggXiq-20" value="" style="endArrow=none;html=1;rounded=0;" parent="1" source="mqM81yEBkV2VAR4ggXiq-19" target="mqM81yEBkV2VAR4ggXiq-9" edge="1">
          <mxGeometry relative="1" as="geometry">
            <mxPoint x="110" y="240" as="sourcePoint" />
            <mxPoint x="150" y="190" as="targetPoint" />
          </mxGeometry>
        </mxCell>
        <mxCell id="mqM81yEBkV2VAR4ggXiq-21" value="n:1" style="edgeLabel;html=1;align=center;verticalAlign=middle;resizable=0;points=[];" parent="mqM81yEBkV2VAR4ggXiq-20" vertex="1" connectable="0">
          <mxGeometry x="0.0037" y="3" relative="1" as="geometry">
            <mxPoint as="offset" />
          </mxGeometry>
        </mxCell>
        <mxCell id="mqM81yEBkV2VAR4ggXiq-22" value="" style="endArrow=none;html=1;rounded=0;" parent="1" source="mqM81yEBkV2VAR4ggXiq-9" target="mqM81yEBkV2VAR4ggXiq-1" edge="1">
          <mxGeometry relative="1" as="geometry">
            <mxPoint x="20" y="300" as="sourcePoint" />
            <mxPoint x="180" y="300" as="targetPoint" />
          </mxGeometry>
        </mxCell>
        <mxCell id="mqM81yEBkV2VAR4ggXiq-23" value="1:1" style="edgeLabel;html=1;align=center;verticalAlign=middle;resizable=0;points=[];" parent="mqM81yEBkV2VAR4ggXiq-22" vertex="1" connectable="0">
          <mxGeometry x="-0.025" y="3" relative="1" as="geometry">
            <mxPoint y="1" as="offset" />
          </mxGeometry>
        </mxCell>
        <mxCell id="mqM81yEBkV2VAR4ggXiq-24" value="台桌会员优惠" style="rounded=1;arcSize=10;whiteSpace=wrap;html=1;align=center;" parent="1" vertex="1">
          <mxGeometry x="-120" y="240" width="100" height="40" as="geometry" />
        </mxCell>
        <mxCell id="mqM81yEBkV2VAR4ggXiq-25" value="" style="endArrow=none;html=1;rounded=0;" parent="1" source="mqM81yEBkV2VAR4ggXiq-24" target="mqM81yEBkV2VAR4ggXiq-9" edge="1">
          <mxGeometry relative="1" as="geometry">
            <mxPoint y="145" as="sourcePoint" />
            <mxPoint x="100" y="175" as="targetPoint" />
          </mxGeometry>
        </mxCell>
        <mxCell id="mqM81yEBkV2VAR4ggXiq-26" value="1:1" style="edgeLabel;html=1;align=center;verticalAlign=middle;resizable=0;points=[];" parent="mqM81yEBkV2VAR4ggXiq-25" vertex="1" connectable="0">
          <mxGeometry x="0.0037" y="3" relative="1" as="geometry">
            <mxPoint as="offset" />
          </mxGeometry>
        </mxCell>
        <mxCell id="mqM81yEBkV2VAR4ggXiq-28" value="条目快照&lt;div&gt;(&lt;span style=&quot;background-color: transparent; color: light-dark(rgb(0, 0, 0), rgb(255, 255, 255));&quot;&gt;台桌条目快照&lt;/span&gt;&lt;span style=&quot;background-color: transparent; color: light-dark(rgb(0, 0, 0), rgb(255, 255, 255));&quot;&gt;)&lt;/span&gt;&lt;/div&gt;" style="ellipse;whiteSpace=wrap;html=1;align=center;" parent="1" vertex="1">
          <mxGeometry x="265" y="40" width="100" height="40" as="geometry" />
        </mxCell>
        <mxCell id="mqM81yEBkV2VAR4ggXiq-29" value="" style="endArrow=none;html=1;rounded=0;" parent="1" source="mqM81yEBkV2VAR4ggXiq-1" target="mqM81yEBkV2VAR4ggXiq-28" edge="1">
          <mxGeometry relative="1" as="geometry">
            <mxPoint x="-40" y="320" as="sourcePoint" />
            <mxPoint x="120" y="320" as="targetPoint" />
          </mxGeometry>
        </mxCell>
        <mxCell id="mqM81yEBkV2VAR4ggXiq-30" value="数量&lt;div&gt;(台桌为:分钟)&lt;/div&gt;" style="ellipse;whiteSpace=wrap;html=1;align=center;" parent="1" vertex="1">
          <mxGeometry x="150" y="300" width="100" height="40" as="geometry" />
        </mxCell>
        <mxCell id="mqM81yEBkV2VAR4ggXiq-31" value="金额" style="ellipse;whiteSpace=wrap;html=1;align=center;" parent="1" vertex="1">
          <mxGeometry x="375" y="300" width="100" height="40" as="geometry" />
        </mxCell>
        <mxCell id="mqM81yEBkV2VAR4ggXiq-32" value="" style="endArrow=none;html=1;rounded=0;" parent="1" source="mqM81yEBkV2VAR4ggXiq-1" target="mqM81yEBkV2VAR4ggXiq-31" edge="1">
          <mxGeometry relative="1" as="geometry">
            <mxPoint x="343" y="210" as="sourcePoint" />
            <mxPoint x="433" y="311" as="targetPoint" />
          </mxGeometry>
        </mxCell>
        <mxCell id="mqM81yEBkV2VAR4ggXiq-33" value="" style="endArrow=none;html=1;rounded=0;" parent="1" source="mqM81yEBkV2VAR4ggXiq-1" target="mqM81yEBkV2VAR4ggXiq-30" edge="1">
          <mxGeometry relative="1" as="geometry">
            <mxPoint x="353" y="220" as="sourcePoint" />
            <mxPoint x="443" y="321" as="targetPoint" />
          </mxGeometry>
        </mxCell>
        <mxCell id="mqM81yEBkV2VAR4ggXiq-34" value="单价" style="ellipse;whiteSpace=wrap;html=1;align=center;" parent="1" vertex="1">
          <mxGeometry x="265" y="300" width="100" height="40" as="geometry" />
        </mxCell>
        <mxCell id="mqM81yEBkV2VAR4ggXiq-35" value="" style="endArrow=none;html=1;rounded=0;" parent="1" source="mqM81yEBkV2VAR4ggXiq-34" target="mqM81yEBkV2VAR4ggXiq-1" edge="1">
          <mxGeometry relative="1" as="geometry">
            <mxPoint x="324" y="210" as="sourcePoint" />
            <mxPoint x="380" y="120" as="targetPoint" />
          </mxGeometry>
        </mxCell>
        <mxCell id="mqM81yEBkV2VAR4ggXiq-39" value="线上核销团购套餐" style="rounded=1;arcSize=10;whiteSpace=wrap;html=1;align=center;" parent="1" vertex="1">
          <mxGeometry x="-490" y="-50" width="100" height="40" as="geometry" />
        </mxCell>
        <mxCell id="mqM81yEBkV2VAR4ggXiq-40" value="店铺自营团购套餐" style="rounded=1;arcSize=10;whiteSpace=wrap;html=1;align=center;" parent="1" vertex="1">
          <mxGeometry x="-490" y="10" width="100" height="40" as="geometry" />
        </mxCell>
        <mxCell id="mqM81yEBkV2VAR4ggXiq-41" value="会员" style="rounded=1;arcSize=10;whiteSpace=wrap;html=1;align=center;" parent="1" vertex="1">
          <mxGeometry x="-330" y="420" width="100" height="40" as="geometry" />
        </mxCell>
        <mxCell id="mqM81yEBkV2VAR4ggXiq-43" value="台桌会员价规则" style="rounded=1;arcSize=10;whiteSpace=wrap;html=1;align=center;" parent="1" vertex="1">
          <mxGeometry x="-330" y="240" width="100" height="40" as="geometry" />
        </mxCell>
        <mxCell id="mqM81yEBkV2VAR4ggXiq-44" value="" style="endArrow=none;html=1;rounded=0;exitX=1;exitY=0.5;exitDx=0;exitDy=0;" parent="1" source="mqM81yEBkV2VAR4ggXiq-61" target="mqM81yEBkV2VAR4ggXiq-19" edge="1">
          <mxGeometry relative="1" as="geometry">
            <mxPoint x="-40" y="220" as="sourcePoint" />
            <mxPoint x="120" y="220" as="targetPoint" />
          </mxGeometry>
        </mxCell>
        <mxCell id="mqM81yEBkV2VAR4ggXiq-65" value="1:1" style="edgeLabel;html=1;align=center;verticalAlign=middle;resizable=0;points=[];" parent="mqM81yEBkV2VAR4ggXiq-44" vertex="1" connectable="0">
          <mxGeometry x="-0.069" y="3" relative="1" as="geometry">
            <mxPoint as="offset" />
          </mxGeometry>
        </mxCell>
        <mxCell id="mqM81yEBkV2VAR4ggXiq-45" value="" style="endArrow=none;html=1;rounded=0;" parent="1" source="mqM81yEBkV2VAR4ggXiq-40" target="mqM81yEBkV2VAR4ggXiq-61" edge="1">
          <mxGeometry relative="1" as="geometry">
            <mxPoint x="-180" y="77" as="sourcePoint" />
            <mxPoint x="-100" y="103" as="targetPoint" />
          </mxGeometry>
        </mxCell>
        <mxCell id="mqM81yEBkV2VAR4ggXiq-48" value="会员等级" style="rounded=1;arcSize=10;whiteSpace=wrap;html=1;align=center;" parent="1" vertex="1">
          <mxGeometry x="-490" y="420" width="100" height="40" as="geometry" />
        </mxCell>
        <mxCell id="mqM81yEBkV2VAR4ggXiq-49" value="" style="endArrow=none;html=1;rounded=0;" parent="1" source="mqM81yEBkV2VAR4ggXiq-43" target="mqM81yEBkV2VAR4ggXiq-24" edge="1">
          <mxGeometry relative="1" as="geometry">
            <mxPoint x="-171" y="70" as="sourcePoint" />
            <mxPoint x="-99" y="100" as="targetPoint" />
          </mxGeometry>
        </mxCell>
        <mxCell id="mqM81yEBkV2VAR4ggXiq-54" value="1:1" style="edgeLabel;html=1;align=center;verticalAlign=middle;resizable=0;points=[];" parent="mqM81yEBkV2VAR4ggXiq-49" vertex="1" connectable="0">
          <mxGeometry x="0.0857" y="1" relative="1" as="geometry">
            <mxPoint y="1" as="offset" />
          </mxGeometry>
        </mxCell>
        <mxCell id="mqM81yEBkV2VAR4ggXiq-50" value="" style="endArrow=none;html=1;rounded=0;" parent="1" source="mqM81yEBkV2VAR4ggXiq-43" target="mqM81yEBkV2VAR4ggXiq-66" edge="1">
          <mxGeometry relative="1" as="geometry">
            <mxPoint x="-161" y="80" as="sourcePoint" />
            <mxPoint x="-268.8888888888889" y="265.55555555555566" as="targetPoint" />
          </mxGeometry>
        </mxCell>
        <mxCell id="mqM81yEBkV2VAR4ggXiq-51" value="1:1" style="edgeLabel;html=1;align=center;verticalAlign=middle;resizable=0;points=[];" parent="mqM81yEBkV2VAR4ggXiq-50" vertex="1" connectable="0">
          <mxGeometry x="-0.06" relative="1" as="geometry">
            <mxPoint as="offset" />
          </mxGeometry>
        </mxCell>
        <mxCell id="mqM81yEBkV2VAR4ggXiq-53" value="" style="endArrow=none;html=1;rounded=0;" parent="1" source="mqM81yEBkV2VAR4ggXiq-41" target="mqM81yEBkV2VAR4ggXiq-48" edge="1">
          <mxGeometry relative="1" as="geometry">
            <mxPoint x="-280" y="320" as="sourcePoint" />
            <mxPoint x="-10" y="320" as="targetPoint" />
          </mxGeometry>
        </mxCell>
        <mxCell id="mqM81yEBkV2VAR4ggXiq-67" value="1:1" style="edgeLabel;html=1;align=center;verticalAlign=middle;resizable=0;points=[];" parent="mqM81yEBkV2VAR4ggXiq-53" vertex="1" connectable="0">
          <mxGeometry x="-0.22" relative="1" as="geometry">
            <mxPoint as="offset" />
          </mxGeometry>
        </mxCell>
        <mxCell id="mqM81yEBkV2VAR4ggXiq-58" value="" style="endArrow=none;html=1;rounded=0;" parent="1" source="mqM81yEBkV2VAR4ggXiq-43" target="mqM81yEBkV2VAR4ggXiq-68" edge="1">
          <mxGeometry relative="1" as="geometry">
            <mxPoint x="-229" y="210" as="sourcePoint" />
            <mxPoint x="-166" y="268" as="targetPoint" />
          </mxGeometry>
        </mxCell>
        <mxCell id="mqM81yEBkV2VAR4ggXiq-59" value="1:1" style="edgeLabel;html=1;align=center;verticalAlign=middle;resizable=0;points=[];" parent="mqM81yEBkV2VAR4ggXiq-58" vertex="1" connectable="0">
          <mxGeometry x="-0.06" relative="1" as="geometry">
            <mxPoint as="offset" />
          </mxGeometry>
        </mxCell>
        <mxCell id="mqM81yEBkV2VAR4ggXiq-60" value="其他..." style="rounded=1;arcSize=10;whiteSpace=wrap;html=1;align=center;" parent="1" vertex="1">
          <mxGeometry x="-490" y="70" width="100" height="40" as="geometry" />
        </mxCell>
        <mxCell id="mqM81yEBkV2VAR4ggXiq-61" value="具体化" style="shape=rhombus;perimeter=rhombusPerimeter;whiteSpace=wrap;html=1;align=center;" parent="1" vertex="1">
          <mxGeometry x="-330" width="100" height="60" as="geometry" />
        </mxCell>
        <mxCell id="mqM81yEBkV2VAR4ggXiq-62" value="" style="endArrow=none;html=1;rounded=0;" parent="1" source="mqM81yEBkV2VAR4ggXiq-39" target="mqM81yEBkV2VAR4ggXiq-61" edge="1">
          <mxGeometry relative="1" as="geometry">
            <mxPoint x="-194" y="100" as="sourcePoint" />
            <mxPoint x="-114" y="38" as="targetPoint" />
          </mxGeometry>
        </mxCell>
        <mxCell id="mqM81yEBkV2VAR4ggXiq-63" value="" style="endArrow=none;html=1;rounded=0;" parent="1" source="mqM81yEBkV2VAR4ggXiq-60" target="mqM81yEBkV2VAR4ggXiq-61" edge="1">
          <mxGeometry relative="1" as="geometry">
            <mxPoint x="-184" y="110" as="sourcePoint" />
            <mxPoint x="-104" y="48" as="targetPoint" />
          </mxGeometry>
        </mxCell>
        <mxCell id="mqM81yEBkV2VAR4ggXiq-66" value="规则:&lt;br&gt;按等级自定义设置" style="rounded=1;arcSize=10;whiteSpace=wrap;html=1;align=center;" parent="1" vertex="1">
          <mxGeometry x="-490" y="190" width="100" height="40" as="geometry" />
        </mxCell>
        <mxCell id="mqM81yEBkV2VAR4ggXiq-68" value="&lt;div&gt;规则:&lt;/div&gt;使用会员等级折扣" style="rounded=1;arcSize=10;whiteSpace=wrap;html=1;align=center;" parent="1" vertex="1">
          <mxGeometry x="-490" y="270" width="100" height="40" as="geometry" />
        </mxCell>
        <mxCell id="mqM81yEBkV2VAR4ggXiq-71" value="" style="endArrow=none;html=1;rounded=0;" parent="1" source="mqM81yEBkV2VAR4ggXiq-41" target="mqM81yEBkV2VAR4ggXiq-24" edge="1">
          <mxGeometry relative="1" as="geometry">
            <mxPoint y="190" as="sourcePoint" />
            <mxPoint x="100" y="190" as="targetPoint" />
          </mxGeometry>
        </mxCell>
        <mxCell id="mqM81yEBkV2VAR4ggXiq-72" value="1:1" style="edgeLabel;html=1;align=center;verticalAlign=middle;resizable=0;points=[];" parent="mqM81yEBkV2VAR4ggXiq-71" vertex="1" connectable="0">
          <mxGeometry x="0.0037" y="3" relative="1" as="geometry">
            <mxPoint as="offset" />
          </mxGeometry>
        </mxCell>
        <mxCell id="mqM81yEBkV2VAR4ggXiq-83" value="" style="endArrow=none;html=1;rounded=0;edgeStyle=orthogonalEdgeStyle;curved=1;" parent="1" edge="1">
          <mxGeometry width="50" height="50" relative="1" as="geometry">
            <mxPoint x="550" y="360" as="sourcePoint" />
            <mxPoint x="550" y="360" as="targetPoint" />
            <Array as="points">
              <mxPoint x="550" y="400" />
              <mxPoint x="140" y="400" />
              <mxPoint x="140" y="420" />
              <mxPoint x="-170" y="420" />
              <mxPoint x="-170" y="60" />
              <mxPoint x="-110" y="60" />
              <mxPoint x="-110" y="-20" />
              <mxPoint x="510" y="-20" />
              <mxPoint x="510" y="40" />
              <mxPoint x="570" y="40" />
              <mxPoint x="570" y="360" />
            </Array>
          </mxGeometry>
        </mxCell>
        <mxCell id="mqM81yEBkV2VAR4ggXiq-87" value="" style="endArrow=none;dashed=1;html=1;dashPattern=1 3;strokeWidth=2;rounded=0;edgeStyle=orthogonalEdgeStyle;curved=1;" parent="1" edge="1">
          <mxGeometry width="50" height="50" relative="1" as="geometry">
            <mxPoint x="79.5" y="290" as="sourcePoint" />
            <mxPoint x="80" y="290" as="targetPoint" />
            <Array as="points">
              <mxPoint x="80" y="291" />
              <mxPoint x="161" y="291" />
              <mxPoint x="161" y="40" />
              <mxPoint x="-150" y="40" />
              <mxPoint x="-150" y="310" />
              <mxPoint x="-10" y="310" />
              <mxPoint x="-10" y="290" />
            </Array>
          </mxGeometry>
        </mxCell>
      </root>
    </mxGraphModel>
  </diagram>
</mxfile>
